<svg width="50" height="60" viewBox="0 0 50 60" fill="none" xmlns="http://www.w3.org/2000/svg">
<g clip-path="url(#clip0)">
<path fill-rule="evenodd" clip-rule="evenodd" d="M48.0109 29.5197C48.0109 38.2284 46.02 44.7181 42.0418 48.9468C38.0635 53.1755 31.9164 55.2888 23.6293 55.2888C15.8865 55.2888 10.0123 53.1748 6.00673 48.9468C2.00113 44.7188 -0.00144333 38.3423 -0.000976481 29.8172V1.21519C-5.35859e-05 0.893308 0.128229 0.584863 0.355863 0.357188C0.583498 0.129514 0.891995 0.001108 1.21401 0H15.2532C15.5754 0.000923456 15.884 0.129248 16.1118 0.356943C16.3396 0.584637 16.468 0.893188 16.4689 1.21519V30.4423C16.4689 33.9234 17.1132 36.6023 18.4241 38.4923C19.0747 39.3545 19.9137 40.0568 20.8771 40.5457C21.8405 41.0346 22.9028 41.2971 23.9831 41.3134C25.0634 41.3296 26.1332 41.099 27.1108 40.6392C28.0884 40.1794 28.9482 39.5026 29.6244 38.6603C30.9059 36.887 31.5445 34.2736 31.5403 30.8203V25.347H48.0109V29.5197Z" fill="#2F80ED"/>
<path fill-rule="evenodd" clip-rule="evenodd" d="M46.7381 22.1501H31.5421V1.2726C31.543 0.935365 31.6774 0.612214 31.916 0.373755C32.1545 0.135296 32.4778 0.000923671 32.8152 0H35.0897C35.0921 3.42332 36.4542 6.7056 38.8767 9.1254C41.2992 11.5452 44.5838 12.9045 48.0084 12.9045H48.0119V22.1501H46.7381Z" fill="#2F80ED"/>
<path fill-rule="evenodd" clip-rule="evenodd" d="M38.3264 0H46.7388C47.0762 0.000923671 47.3995 0.135296 47.638 0.373755C47.8766 0.612214 48.011 0.935365 48.0119 1.2726V9.69221C45.4432 9.69221 42.9796 8.67216 41.1632 6.85649C39.3468 5.04082 38.3264 2.57825 38.3264 0.0104996V0Z" fill="#FF9233"/>
</g>
<defs>
<clipPath id="clip0">
<rect width="50" height="60" fill="white"/>
</clipPath>
</defs>
</svg>
