<svg width="180" height="60" viewBox="0 0 180 60" fill="none" xmlns="http://www.w3.org/2000/svg">
<path d="M85.78 47H82.92V37.66L79.16 47H77.92L74.16 37.66V47H71.32V33.66H75.3L78.54 41.72L81.78 33.66H85.78V47ZM103.869 47H100.629L99.8094 44.74H94.0894L93.2494 47H90.0094L95.1694 33.66H98.7294L103.869 47ZM99.0294 42.24L96.9494 36.5L94.8694 42.24H99.0294ZM118.901 47H115.641L113.021 42.26H110.941V47H108.101V33.66H114.341C115.715 33.66 116.801 34.06 117.601 34.86C118.415 35.66 118.821 36.6933 118.821 37.96C118.821 39.0533 118.535 39.94 117.961 40.62C117.401 41.3 116.715 41.7333 115.901 41.92L118.901 47ZM113.921 39.76C114.508 39.76 114.988 39.6 115.361 39.28C115.735 38.9467 115.921 38.5067 115.921 37.96C115.921 37.4133 115.735 36.98 115.361 36.66C114.988 36.3267 114.508 36.16 113.921 36.16H110.941V39.76H113.921ZM135.373 47H131.873L127.833 41.66L126.793 42.9V47H123.953V33.66H126.793V39.62L131.513 33.66H135.013L129.713 39.92L135.373 47ZM149.108 47H139.668V33.66H149.108V36.16H142.508V38.98H148.968V41.48H142.508V44.5H149.108V47ZM160.268 47H157.408V36.16H153.508V33.66H164.148V36.16H160.268V47Z" fill="#FF9233"/>
<g clip-path="url(#clip0)">
<path fill-rule="evenodd" clip-rule="evenodd" d="M48.0109 29.5197C48.0109 38.2284 46.02 44.7181 42.0418 48.9468C38.0635 53.1755 31.9164 55.2888 23.6293 55.2888C15.8865 55.2888 10.0123 53.1748 6.00673 48.9468C2.00113 44.7188 -0.00144333 38.3423 -0.000976481 29.8172V1.21519C-5.35859e-05 0.893308 0.128229 0.584863 0.355863 0.357188C0.583498 0.129514 0.891995 0.001108 1.21401 0H15.2532C15.5754 0.000923456 15.884 0.129248 16.1118 0.356943C16.3396 0.584637 16.468 0.893188 16.4689 1.21519V30.4423C16.4689 33.9234 17.1132 36.6023 18.4241 38.4923C19.0747 39.3545 19.9137 40.0568 20.8771 40.5457C21.8405 41.0346 22.9028 41.2971 23.9831 41.3134C25.0634 41.3296 26.1332 41.099 27.1108 40.6392C28.0884 40.1794 28.9482 39.5026 29.6244 38.6603C30.9059 36.887 31.5445 34.2736 31.5403 30.8203V25.347H48.0109V29.5197Z" fill="#2F80ED"/>
<path fill-rule="evenodd" clip-rule="evenodd" d="M46.7381 22.1501H31.5421V1.2726C31.543 0.935365 31.6774 0.612214 31.916 0.373755C32.1545 0.135296 32.4778 0.000923671 32.8152 0H35.0897C35.0921 3.42332 36.4542 6.7056 38.8767 9.1254C41.2992 11.5452 44.5838 12.9045 48.0084 12.9045H48.0119V22.1501H46.7381Z" fill="#2F80ED"/>
<path fill-rule="evenodd" clip-rule="evenodd" d="M38.3264 0H46.7388C47.0762 0.000923671 47.3995 0.135296 47.638 0.373755C47.8766 0.612214 48.011 0.935365 48.0119 1.2726V9.69221C45.4432 9.69221 42.9796 8.67216 41.1632 6.85649C39.3468 5.04082 38.3264 2.57825 38.3264 0.0104996V0Z" fill="#FF9233"/>
</g>
<g clip-path="url(#clip1)">
<path fill-rule="evenodd" clip-rule="evenodd" d="M76.3629 24.2435C80.6518 24.2435 82.7236 22.0265 82.7236 18.7715V10.9265H79.6531V18.6935C79.6531 19.5076 79.3047 20.2885 78.6845 20.8642C78.0642 21.4399 77.2231 21.7632 76.3459 21.7632C75.4688 21.7632 74.6276 21.4399 74.0074 20.8642C73.3872 20.2885 73.0387 19.5076 73.0387 18.6935V10.9265H69.9957V18.7956C69.9957 22.0116 72.0659 24.248 76.3564 24.248L76.3629 24.2435ZM99.2498 24.008V21.5571H92.4463L99.1027 13.157V10.9205H88.5161V13.3731H95.1725L88.5161 21.7475V23.9975L99.2498 24.008ZM111.59 24.2435C112.798 24.2695 113.99 23.9822 115.032 23.4138C116.073 22.8453 116.923 22.0185 117.486 21.0261L114.9 19.8696C114.585 20.4365 114.11 20.9131 113.526 21.2483C112.941 21.5834 112.269 21.7643 111.582 21.7715C110.395 21.717 109.275 21.2407 108.455 20.4411C107.635 19.6416 107.178 18.5801 107.178 17.4763C107.178 16.3725 107.635 15.311 108.455 14.5114C109.275 13.7119 110.395 13.2356 111.582 13.1811C112.268 13.1923 112.939 13.3749 113.522 13.7096C114.106 14.0442 114.582 14.5187 114.9 15.083L117.486 13.9056C116.923 12.9144 116.073 12.0894 115.031 11.5243C113.989 10.9593 112.797 10.6768 111.59 10.7091C110.615 10.6821 109.643 10.8372 108.734 11.1651C107.824 11.493 106.994 11.9871 106.294 12.6181C105.593 13.2491 105.037 14.0041 104.656 14.8385C104.276 15.6729 104.08 16.5696 104.08 17.4756C104.08 18.3815 104.276 19.2782 104.656 20.1126C105.037 20.9469 105.593 21.702 106.294 22.333C106.994 22.964 107.824 23.4581 108.734 23.786C109.643 24.1139 110.615 24.269 111.59 24.242V24.2435ZM135.806 24.008L130.376 10.9265H126.615L121.163 24.008H124.586L125.473 21.791H131.517L132.383 24.008H135.806ZM130.693 19.34H126.297L128.495 13.7106L130.693 19.34ZM154.064 27.29L148.893 19.0296C149.817 18.8227 150.633 18.3198 151.198 17.6095C151.762 16.8992 152.038 16.0268 151.978 15.1461C152.002 14.5712 151.894 13.9982 151.662 13.4648C151.429 12.9314 151.078 12.4497 150.631 12.0514C150.184 11.6531 149.651 11.3472 149.067 11.1538C148.484 10.9605 147.862 10.884 147.245 10.9296H140.65V24.011H143.651V19.361H145.848L150.619 27.287L154.064 27.29ZM146.8 16.9115H143.652V13.382H146.79C147.057 13.356 147.326 13.3822 147.581 13.4591C147.836 13.5359 148.071 13.6616 148.27 13.828C148.469 13.9944 148.628 14.1978 148.737 14.425C148.846 14.6522 148.902 14.8981 148.902 15.1468C148.902 15.3955 148.846 15.6414 148.737 15.8686C148.628 16.0958 148.469 16.2992 148.27 16.4656C148.071 16.632 147.836 16.7577 147.581 16.8345C147.326 16.9113 147.057 16.9375 146.79 16.9115H146.8ZM163.325 24.011C167.741 24.011 170.805 21.422 170.805 17.4801C170.805 13.5381 167.735 10.9296 163.325 10.9296H157.767V24.011H163.325ZM163.325 21.56H160.768V13.382H163.325C163.916 13.3415 164.509 13.4198 165.065 13.6114C165.62 13.803 166.125 14.1035 166.544 14.4924C166.963 14.8813 167.287 15.3494 167.494 15.865C167.7 16.3806 167.785 16.9314 167.741 17.4801C167.766 18.0241 167.668 18.567 167.454 19.0741C167.24 19.5811 166.915 20.0412 166.498 20.4248C166.082 20.8085 165.584 21.1073 165.036 21.3023C164.488 21.4972 163.903 21.584 163.317 21.5571L163.325 21.56Z" fill="#2F80ED"/>
<path fill-rule="evenodd" clip-rule="evenodd" d="M178.064 10.6804V10.7119C178.065 11.1937 177.911 11.6649 177.623 12.0657C177.335 12.4665 176.925 12.7789 176.445 12.9635C175.966 13.1481 175.438 13.1966 174.929 13.1027C174.42 13.0089 173.952 12.777 173.585 12.4364C173.218 12.0958 172.967 11.6618 172.866 11.1892C172.765 10.7166 172.817 10.2267 173.015 9.78151C173.214 9.3363 173.55 8.95574 173.982 8.688C174.413 8.42027 174.921 8.27734 175.44 8.27734H178.063L178.064 10.6804Z" fill="#2F80ED"/>
</g>
<defs>
<clipPath id="clip0">
<rect width="50" height="60" fill="white"/>
</clipPath>
<clipPath id="clip1">
<rect x="70" y="7" width="110" height="20" fill="white"/>
</clipPath>
</defs>
</svg>
