<svg width="30" height="30" viewBox="0 0 30 30" fill="none" xmlns="http://www.w3.org/2000/svg">
<g opacity="0.5">
<path fill-rule="evenodd" clip-rule="evenodd" d="M14.375 3.39961C12.1106 3.39961 10.275 5.23524 10.275 7.49961V10.3496H18.475V7.49961C18.475 5.23524 16.6393 3.39961 14.375 3.39961ZM20.275 10.3496V7.49961C20.275 4.24113 17.6335 1.59961 14.375 1.59961C11.1165 1.59961 8.47498 4.24113 8.47498 7.49961V10.3496H5.99998C4.95063 10.3496 4.09998 11.2003 4.09998 12.2496V26.4996C4.09998 27.5489 4.95063 28.3996 5.99998 28.3996H22.75C23.7993 28.3996 24.65 27.5489 24.65 26.4996V12.2496C24.65 11.2003 23.7993 10.3496 22.75 10.3496H20.275ZM5.99998 12.1496C5.94475 12.1496 5.89998 12.1944 5.89998 12.2496V26.4996C5.89998 26.5548 5.94475 26.5996 5.99998 26.5996H22.75C22.8052 26.5996 22.85 26.5548 22.85 26.4996V12.2496C22.85 12.1944 22.8052 12.1496 22.75 12.1496H19.375H9.37498H5.99998ZM10.625 14.9996C10.625 15.69 10.0653 16.2496 9.37498 16.2496C8.68462 16.2496 8.12498 15.69 8.12498 14.9996C8.12498 14.3093 8.68462 13.7496 9.37498 13.7496C10.0653 13.7496 10.625 14.3093 10.625 14.9996ZM19.375 16.2496C20.0653 16.2496 20.625 15.69 20.625 14.9996C20.625 14.3093 20.0653 13.7496 19.375 13.7496C18.6846 13.7496 18.125 14.3093 18.125 14.9996C18.125 15.69 18.6846 16.2496 19.375 16.2496Z" fill="white"/>
</g>
</svg>
