<svg width="30" height="30" viewBox="0 0 30 30" fill="none" xmlns="http://www.w3.org/2000/svg">
<g opacity="0.5">
<path d="M9.35156 21.5273C9.83697 21.5273 10.2305 21.1338 10.2305 20.6484C10.2305 20.163 9.83697 19.7695 9.35156 19.7695C8.86616 19.7695 8.47266 20.163 8.47266 20.6484C8.47266 21.1338 8.86616 21.5273 9.35156 21.5273Z" fill="white"/>
<path d="M9.35156 25.293C9.83697 25.293 10.2305 24.8995 10.2305 24.4141C10.2305 23.9287 9.83697 23.5352 9.35156 23.5352C8.86616 23.5352 8.47266 23.9287 8.47266 24.4141C8.47266 24.8995 8.86616 25.293 9.35156 25.293Z" fill="white"/>
<path d="M13.1173 21.5273C13.6027 21.5273 13.9962 21.1338 13.9962 20.6484C13.9962 20.163 13.6027 19.7695 13.1173 19.7695C12.6319 19.7695 12.2384 20.163 12.2384 20.6484C12.2384 21.1338 12.6319 21.5273 13.1173 21.5273Z" fill="white"/>
<path d="M13.1173 25.293C13.6027 25.293 13.9962 24.8995 13.9962 24.4141C13.9962 23.9287 13.6027 23.5352 13.1173 23.5352C12.6319 23.5352 12.2384 23.9287 12.2384 24.4141C12.2384 24.8995 12.6319 25.293 13.1173 25.293Z" fill="white"/>
<path d="M16.8827 21.5273C17.3681 21.5273 17.7616 21.1338 17.7616 20.6484C17.7616 20.163 17.3681 19.7695 16.8827 19.7695C16.3973 19.7695 16.0038 20.163 16.0038 20.6484C16.0038 21.1338 16.3973 21.5273 16.8827 21.5273Z" fill="white"/>
<path d="M16.8827 25.293C17.3681 25.293 17.7616 24.8995 17.7616 24.4141C17.7616 23.9287 17.3681 23.5352 16.8827 23.5352C16.3973 23.5352 16.0038 23.9287 16.0038 24.4141C16.0038 24.8995 16.3973 25.293 16.8827 25.293Z" fill="white"/>
<path d="M21.5899 0H12.1758C9.6148 0 7.53127 2.08353 7.53127 4.64455V5.64844H6.52738C5.00459 5.64844 3.76562 6.88734 3.76562 8.41014V27.2382C3.76568 28.761 5.00459 30 6.52738 30H19.7071C21.2298 30 22.4688 28.761 22.4688 27.2382V16.4845L23.4727 15.9826L24.9625 16.7275C25.235 16.8636 25.5586 16.849 25.8176 16.689C26.0768 16.5289 26.2345 16.2459 26.2345 15.9414V4.64449C26.2344 2.08353 24.1509 0 21.5899 0V0ZM9.28908 4.64455C9.28908 3.05279 10.5841 1.75781 12.1758 1.75781H17.9555C17.324 2.55111 16.9454 3.55412 16.9454 4.64455V8.47266H9.28908V4.64455ZM20.711 27.2382C20.711 27.7918 20.2606 28.2422 19.7071 28.2422H6.52738C5.97385 28.2422 5.52344 27.7918 5.52344 27.2382V8.41014C5.52344 7.8566 5.97385 7.40625 6.52738 7.40625H7.53127V9.35156C7.53127 9.83695 7.92479 10.2305 8.41018 10.2305H17.8243C18.3097 10.2305 18.7032 9.83695 18.7032 9.35156V7.40625H19.7071C20.2606 7.40625 20.711 7.8566 20.711 8.41014V27.2382ZM24.4766 14.5193L23.8657 14.2138C23.742 14.152 23.6073 14.1211 23.4726 14.1211C23.3379 14.1211 23.2033 14.152 23.0796 14.2139L22.4688 14.5193V8.41014C22.4688 6.88734 21.2298 5.64844 19.707 5.64844H18.7032V4.64455C18.7032 3.05279 19.9981 1.75781 21.5899 1.75781C23.1817 1.75781 24.4766 3.05279 24.4766 4.64455V14.5193H24.4766Z" fill="white"/>
<path d="M17.8243 12.2383H8.41016C7.92477 12.2383 7.53125 12.6318 7.53125 13.1172V16.8829C7.53125 17.3683 7.92477 17.7618 8.41016 17.7618H17.8243C18.3096 17.7618 18.7032 17.3683 18.7032 16.8829V13.1172C18.7032 12.6318 18.3096 12.2383 17.8243 12.2383ZM16.9453 16.004H9.28906V13.9961H16.9453V16.004Z" fill="white"/>
</g>
</svg>
