<svg width="30" height="30" viewBox="0 0 30 30" fill="none" xmlns="http://www.w3.org/2000/svg">
<g opacity="0.5">
<path d="M11.2344 13.0547C11.7198 13.0547 12.1133 12.6612 12.1133 12.1758C12.1133 11.6904 11.7198 11.2969 11.2344 11.2969C10.749 11.2969 10.3555 11.6904 10.3555 12.1758C10.3555 12.6612 10.749 13.0547 11.2344 13.0547Z" fill="white"/>
<path d="M11.2344 16.8203C11.7198 16.8203 12.1133 16.4268 12.1133 15.9414C12.1133 15.456 11.7198 15.0625 11.2344 15.0625C10.749 15.0625 10.3555 15.456 10.3555 15.9414C10.3555 16.4268 10.749 16.8203 11.2344 16.8203Z" fill="white"/>
<path d="M11.2344 20.5859C11.7198 20.5859 12.1133 20.1924 12.1133 19.707C12.1133 19.2216 11.7198 18.8281 11.2344 18.8281C10.749 18.8281 10.3555 19.2216 10.3555 19.707C10.3555 20.1924 10.749 20.5859 11.2344 20.5859Z" fill="white"/>
<path d="M15 13.0547C15.4854 13.0547 15.8789 12.6612 15.8789 12.1758C15.8789 11.6904 15.4854 11.2969 15 11.2969C14.5146 11.2969 14.1211 11.6904 14.1211 12.1758C14.1211 12.6612 14.5146 13.0547 15 13.0547Z" fill="white"/>
<path d="M15 16.8203C15.4854 16.8203 15.8789 16.4268 15.8789 15.9414C15.8789 15.456 15.4854 15.0625 15 15.0625C14.5146 15.0625 14.1211 15.456 14.1211 15.9414C14.1211 16.4268 14.5146 16.8203 15 16.8203Z" fill="white"/>
<path d="M15 20.5859C15.4854 20.5859 15.8789 20.1924 15.8789 19.707C15.8789 19.2216 15.4854 18.8281 15 18.8281C14.5146 18.8281 14.1211 19.2216 14.1211 19.707C14.1211 20.1924 14.5146 20.5859 15 20.5859Z" fill="white"/>
<path d="M18.7656 13.0547C19.251 13.0547 19.6445 12.6612 19.6445 12.1758C19.6445 11.6904 19.251 11.2969 18.7656 11.2969C18.2802 11.2969 17.8867 11.6904 17.8867 12.1758C17.8867 12.6612 18.2802 13.0547 18.7656 13.0547Z" fill="white"/>
<path d="M18.7656 16.8203C19.251 16.8203 19.6445 16.4268 19.6445 15.9414C19.6445 15.456 19.251 15.0625 18.7656 15.0625C18.2802 15.0625 17.8867 15.456 17.8867 15.9414C17.8867 16.4268 18.2802 16.8203 18.7656 16.8203Z" fill="white"/>
<path d="M18.7656 20.5859C19.251 20.5859 19.6445 20.1924 19.6445 19.707C19.6445 19.2216 19.251 18.8281 18.7656 18.8281C18.2802 18.8281 17.8867 19.2216 17.8867 19.707C17.8867 20.1924 18.2802 20.5859 18.7656 20.5859Z" fill="white"/>
<path d="M21.5899 0H8.41014C6.88734 0 5.64844 1.23896 5.64844 2.76176V21.5899C5.64844 23.1127 6.88734 24.3516 8.41014 24.3516H8.47266V29.1211C8.47266 29.6065 8.86617 30 9.35156 30H20.6484C21.1338 30 21.5273 29.6065 21.5273 29.1211V24.3516H21.5899C23.1127 24.3516 24.3516 23.1127 24.3516 21.5899V2.76176C24.3516 1.23896 23.1127 0 21.5899 0V0ZM10.2305 24.3516H16.0039V28.2422H10.2305V24.3516ZM19.7695 28.2422H17.7617V24.3516H19.7695V28.2422ZM22.5938 21.5899C22.5938 22.1434 22.1434 22.5938 21.5899 22.5938H8.41014C7.8566 22.5938 7.40625 22.1434 7.40625 21.5899V2.76176C7.40625 2.20822 7.8566 1.75781 8.41014 1.75781H21.5899C22.1434 1.75781 22.5938 2.20822 22.5938 2.76176V21.5899Z" fill="white"/>
<path d="M19.707 3.76562H10.293C9.80758 3.76562 9.41406 4.15914 9.41406 4.64453V8.41018C9.41406 8.89557 9.80758 9.28908 10.293 9.28908H19.7071C20.1925 9.28908 20.586 8.89557 20.586 8.41018V4.64453C20.5859 4.15908 20.1925 3.76562 19.707 3.76562ZM18.8281 7.53121H11.1719V5.52344H18.8282V7.53121H18.8281Z" fill="white"/>
</g>
</svg>
